<svg width="59" height="59" viewBox="0 0 59 59" fill="none" xmlns="http://www.w3.org/2000/svg">
<circle cx="29.5516" cy="29.5516" r="28.7931" fill="#F7931A"/>
<path fill-rule="evenodd" clip-rule="evenodd" d="M34.5021 29.4716C36.2454 29.0489 37.5642 27.8638 37.9279 25.4249C38.4296 22.0937 35.9767 20.3178 32.6154 19.1436L33.7316 14.629L31.0673 13.9606L29.9798 18.3559C29.281 18.1789 28.5625 18.0127 27.8476 17.8501L28.9424 13.424L26.2798 12.7556L25.1636 17.2684C24.5831 17.1365 24.0133 17.0046 23.4615 16.8655L23.465 16.8529L19.792 15.9279L19.0663 18.8618C19.0663 18.8618 21.0426 19.3188 20.9996 19.3459C22.08 19.6187 22.2717 20.3522 22.2359 20.9357L20.9638 26.0789C21.0583 26.1027 21.1511 26.1328 21.2415 26.1692L20.9584 26.0988L19.1774 33.3033C19.043 33.6411 18.7062 34.1488 17.9501 33.9627C17.977 34.0006 16.015 33.4749 16.015 33.4749L14.6748 36.6219L18.1418 37.4945C18.5325 37.593 18.918 37.6941 19.2998 37.7943C19.5483 37.8595 19.7952 37.9243 20.041 37.9877L18.9122 42.5546L21.5712 43.2231L22.6892 38.7067C23.3943 38.8994 24.1015 39.0843 24.8106 39.2613L23.698 43.7596L26.3605 44.428L27.4893 39.8719C32.0331 40.73 35.4553 40.3543 36.9173 36.1143C38.0945 32.6999 36.8869 30.7416 34.5021 29.4716ZM46.5677 40.197L47.5442 36.2533L51.4555 37.2379L52.1059 34.6076L48.1946 33.6248L49.1693 29.6811L46.5623 29.0253L45.5858 32.969L41.6745 31.9863L41.0241 34.6148L44.9354 35.5976L43.9607 39.5431L46.5677 40.197ZM31.7879 34.25C32.5787 31.0508 27.9779 30.0122 25.7278 29.5042L25.7276 29.5041C25.4747 29.447 25.2514 29.3966 25.0689 29.3506L23.5764 35.3971C23.7259 35.4345 23.9013 35.4813 24.0977 35.5336L24.0977 35.5336C26.2722 36.1131 31.0191 37.3781 31.7915 34.2482L31.7879 34.25ZM27.6602 21.2211C29.5361 21.6384 33.3788 22.4932 32.6605 25.4051C31.955 28.2534 27.9947 27.1838 26.1858 26.6953C26.0237 26.6515 25.8788 26.6124 25.7551 26.5812L27.1115 21.0947C27.2634 21.1328 27.4494 21.1742 27.6602 21.2211Z" fill="white"/>
</svg>
