<svg width="63" height="63" viewBox="0 0 63 63" fill="none" xmlns="http://www.w3.org/2000/svg">
<rect width="63" height="63" rx="8" fill="#010427"/>
<path d="M33.1308 18.16V8.1936C20.3499 8.1936 10 18.6578 10 30.9734C10 43.2895 20.3505 53.7542 33.1308 53.7542V43.7878C26.309 43.7878 20.1197 39.5165 20.1197 30.9739C20.1197 22.4313 26.309 18.16 33.1308 18.16Z" fill="white"/>
<path d="M47.1595 19.0899C46.4154 19.0899 45.6785 18.9449 44.9911 18.6631C44.3036 18.3813 43.6789 17.9682 43.1527 17.4475C42.6265 16.9268 42.2091 16.3087 41.9244 15.6283C41.6396 14.948 41.493 14.2188 41.493 13.4825C41.493 12.7461 41.6396 12.0169 41.9244 11.3366C42.2091 10.6563 42.6265 10.0381 43.1527 9.51739C43.6789 8.99669 44.3036 8.58364 44.9911 8.30184C45.6785 8.02004 46.4154 7.875 47.1595 7.875C48.6624 7.875 50.1036 8.46578 51.1663 9.51739C52.229 10.569 52.826 11.9953 52.826 13.4825C52.826 14.9697 52.229 16.3959 51.1663 17.4475C50.1036 18.4991 48.6624 19.0899 47.1595 19.0899Z" fill="#00DCD7"/>
<path d="M47.1595 54.0728C45.6566 54.0728 44.2154 53.482 43.1527 52.4304C42.0901 51.3788 41.493 49.9526 41.493 48.4654C41.493 46.9782 42.0901 45.5519 43.1527 44.5003C44.2154 43.4487 45.6566 42.8579 47.1595 42.8579C48.6624 42.8579 50.1036 43.4487 51.1663 44.5003C52.229 45.5519 52.826 46.9782 52.826 48.4654C52.826 49.9526 52.229 51.3788 51.1663 52.4304C50.1036 53.482 48.6624 54.0728 47.1595 54.0728Z" fill="#FF318B"/>
<path d="M33.595 43.3996V18.5483C40.5335 18.5483 46.3052 24.0708 46.1483 30.973C46.3052 37.8771 40.534 43.3996 33.595 43.3996Z" fill="white"/>
</svg>
