<svg width="28" height="20" viewBox="0 0 28 20" fill="none" xmlns="http://www.w3.org/2000/svg">
<path d="M5.00032 15.2676C5.1635 15.1116 5.38473 15.0239 5.61539 15.0239H26.8974C27.285 15.0239 27.4791 15.4726 27.2049 15.7348L22.9996 19.7563C22.8365 19.9123 22.6152 20 22.3845 20H1.10256C0.714898 20 0.520812 19.5513 0.795025 19.289L5.00032 15.2676Z" fill="white"/>
<path d="M5.00032 0.243705C5.16348 0.0876509 5.38472 -7.79319e-06 5.61539 5.19655e-10H26.8974C27.285 5.19655e-10 27.4791 0.448676 27.2049 0.710965L22.9996 4.73242C22.8364 4.88843 22.6152 4.97607 22.3845 4.97607H1.10256C0.714898 4.97607 0.520812 4.5274 0.795025 4.26516L5.00032 0.243705Z" fill="white"/>
<path d="M22.9996 7.70779C22.8364 7.55177 22.6152 7.46413 22.3845 7.46413H1.10256C0.714898 7.46413 0.520812 7.91281 0.795025 8.17505L5.00032 12.1965C5.16348 12.3526 5.38472 12.4402 5.61539 12.4402H26.8974C27.285 12.4402 27.4791 11.9915 27.2049 11.7292L22.9996 7.70779Z" fill="white"/>
</svg>
