<svg width="26" height="22" viewBox="0 0 26 22" fill="none" xmlns="http://www.w3.org/2000/svg">
<path fill-rule="evenodd" clip-rule="evenodd" d="M13.5939 11.7684C14.7865 11.4793 15.6886 10.6685 15.9374 9.00017C16.2806 6.72129 14.6026 5.50646 12.3032 4.70317L13.0668 1.61481L11.2442 1.15755L10.5002 4.16434C10.0222 4.04323 9.53066 3.92953 9.04161 3.81831L9.79051 0.790511L7.96912 0.333252L7.20551 3.42037C6.80839 3.33015 6.41861 3.23994 6.0411 3.14478L6.04355 3.13613L3.53087 2.50338L3.03446 4.51038C3.03446 4.51038 4.38641 4.82304 4.35699 4.84158C5.09609 5.02819 5.22723 5.52994 5.20272 5.92912L4.33247 9.44754C4.39711 9.46379 4.46059 9.48443 4.52246 9.50933L4.3288 9.46113L3.11045 14.3896C3.01853 14.6207 2.78809 14.968 2.27085 14.8407C2.28924 14.8667 0.947096 14.507 0.947096 14.507L0.0302734 16.6599L2.402 17.2568C2.66926 17.3242 2.93293 17.3933 3.19408 17.4619L3.19436 17.4619L3.19447 17.462C3.36435 17.5065 3.53318 17.5508 3.70124 17.5942L2.92905 20.7184L4.74799 21.1756L5.51282 18.086C5.99516 18.2179 6.47893 18.3444 6.96405 18.4654L6.20289 21.5427L8.02428 21.9999L8.79647 18.8831C11.9048 19.4702 14.2459 19.2131 15.2461 16.3126C16.0514 13.9769 15.2253 12.6372 13.5939 11.7684ZM21.8478 19.1055L22.5158 16.4076L25.1915 17.0812L25.6364 15.2818L22.9607 14.6095L23.6275 11.9117L21.8441 11.463L21.1761 14.1609L18.5004 13.4886L18.0555 15.2867L20.7312 15.959L20.0644 18.6581L21.8478 19.1055ZM11.737 15.0373C12.2779 12.8488 9.13059 12.1382 7.59133 11.7907L7.59129 11.7907C7.41821 11.7517 7.26547 11.7172 7.14059 11.6857L6.11959 15.822C6.22191 15.8476 6.34187 15.8796 6.47618 15.9154L6.47623 15.9154C7.96376 16.3118 11.211 17.1772 11.7394 15.036L11.737 15.0373ZM8.91319 6.12445C10.1965 6.40993 12.8252 6.9947 12.3338 8.98667C11.8512 10.9352 9.14199 10.2035 7.90461 9.86928C7.79367 9.83932 7.69457 9.81255 7.60996 9.7912L8.53782 6.03797C8.64172 6.06406 8.76896 6.09237 8.91319 6.12445Z" fill="white"/>
</svg>
