<svg width="26" height="24" viewBox="0 0 26 24" fill="none" xmlns="http://www.w3.org/2000/svg">
<path d="M24.1547 0.333252L14.4862 7.54425L16.2742 3.28986L24.1547 0.333252Z" fill="#E2761B"/>
<path d="M1.83475 0.333252L11.4256 7.61256L9.72506 3.28986L1.83475 0.333252ZM20.6763 17.0483L18.1012 21.01L23.6108 22.5322L25.1947 17.1362L20.6763 17.0483ZM0.814453 17.1362L2.38863 22.5322L7.89824 21.01L5.3232 17.0483L0.814453 17.1362Z" fill="white"/>
<path d="M7.58706 10.3544L6.05176 12.6866L11.5225 12.9305L11.3282 7.02704L7.58706 10.3544ZM18.4022 10.3544L14.6125 6.95874L14.4862 12.9305L19.9472 12.6866L18.4022 10.3544ZM7.89801 21.0099L11.1824 19.3999L8.345 17.1751L7.89801 21.0099ZM14.8069 19.3999L18.101 21.0099L17.6443 17.1751L14.8069 19.3999Z" fill="white"/>
<path d="M18.1011 21.0099L14.8069 19.3999L15.0693 21.5564L15.0402 22.4639L18.1011 21.0099ZM7.89807 21.0099L10.959 22.4639L10.9395 21.5564L11.1825 19.3999L7.89807 21.0099Z" fill="#D7C1B3"/>
<path d="M11.0076 15.7506L8.26733 14.9407L10.201 14.0527L11.0076 15.7506ZM14.9819 15.7506L15.7884 14.0527L17.7318 14.9407L14.9819 15.7506Z" fill="#233447"/>
<path d="M7.89816 21.0099L8.36458 17.0483L5.32312 17.1361L7.89816 21.0099ZM17.6347 17.0483L18.1011 21.0099L20.6762 17.1361L17.6347 17.0483ZM19.9474 12.6865L14.4864 12.9305L14.9917 15.7505L15.7982 14.0526L17.7416 14.9406L19.9474 12.6865ZM8.26741 14.9406L10.2108 14.0526L11.0076 15.7505L11.5226 12.9305L6.0519 12.6865L8.26741 14.9406Z" fill="#CD6116"/>
<path d="M6.05176 12.6865L8.345 17.1751L8.26726 14.9406L6.05176 12.6865ZM17.7415 14.9406L17.6443 17.1751L19.9472 12.6865L17.7415 14.9406ZM11.5225 12.9305L11.0075 15.7505L11.6488 19.0779L11.7946 14.6966L11.5225 12.9305ZM14.4862 12.9305L14.2239 14.6869L14.3405 19.0779L14.9915 15.7505L14.4862 12.9305Z" fill="#E4751F"/>
<path d="M14.9916 15.7506L14.3405 19.078L14.807 19.4L17.6444 17.1752L17.7415 14.9407L14.9916 15.7506ZM8.26733 14.9407L8.34507 17.1752L11.1825 19.4L11.6489 19.078L11.0076 15.7506L8.26733 14.9407Z" fill="white"/>
<path d="M15.0402 22.4639L15.0693 21.5564L14.8264 21.3418H11.163L10.9395 21.5564L10.959 22.4639L7.89807 21.01L8.96695 21.8882L11.1339 23.4007H14.8555L17.0322 21.8882L18.1011 21.01L15.0402 22.4639Z" fill="#C0AD9E"/>
<path d="M14.8069 19.4001L14.3404 19.0781H11.6488L11.1824 19.4001L10.9395 21.5566L11.1629 21.3419H14.8263L15.0692 21.5566L14.8069 19.4001Z" fill="#161616"/>
<path d="M24.5629 8.01263L25.3889 4.03145L24.1548 0.333252L14.8069 7.30031L18.4023 10.3545L23.4843 11.8474L24.6115 10.5301L24.1257 10.1789L24.903 9.46654L24.3006 8.99816L25.0779 8.40294L24.5629 8.01263ZM0.610229 4.03145L1.43619 8.01263L0.911461 8.40294L1.68883 8.99816L1.09609 9.46654L1.87346 10.1789L1.3876 10.5301L2.50507 11.8474L7.58712 10.3545L11.1825 7.30031L1.83459 0.333252L0.610229 4.03145Z" fill="white"/>
<path d="M23.4845 11.8474L18.4024 10.3544L19.9475 12.6865L17.6445 17.1751L20.6763 17.1361H25.1947L23.4845 11.8474ZM7.58729 10.3544L2.50523 11.8474L0.814453 17.1361H5.3232L8.34522 17.1751L6.05198 12.6865L7.58729 10.3544ZM14.4864 12.9305L14.8071 7.30024L16.2841 3.28979H9.72506L11.1826 7.30024L11.5227 12.9305L11.6393 14.7064L11.649 19.0779H14.3407L14.3601 14.7064L14.4864 12.9305Z" fill="white"/>
</svg>
