<svg width="29" height="27" viewBox="0 0 29 27" fill="none" xmlns="http://www.w3.org/2000/svg">
<path d="M7.80131 13.0546C7.77213 13.5629 7.94592 14.0619 8.28451 14.4422C8.62309 14.8224 9.09877 15.0526 9.60703 15.0823H9.71177C10.0861 15.0819 10.4521 14.9719 10.7646 14.7659C11.0771 14.5599 11.3225 14.2668 11.4704 13.923C11.6183 13.5791 11.6623 13.1995 11.597 12.8309C11.5316 12.4623 11.3597 12.121 11.1026 11.8489C10.8455 11.5769 10.5143 11.3861 10.15 11.3001C9.78571 11.2141 9.4042 11.2367 9.05256 11.365C8.70092 11.4933 8.39455 11.7218 8.17127 12.0222C7.94798 12.3227 7.81755 12.6819 7.79607 13.0556L7.80131 13.0546Z" fill="white"/>
<path d="M0.653849 12.5686C0.531651 12.5617 0.410168 12.5913 0.304753 12.6535C0.199337 12.7156 0.114721 12.8077 0.0615974 12.9179C0.0084737 13.0282 -0.010773 13.1517 0.00628971 13.2729C0.0233524 13.3941 0.0759586 13.5075 0.15746 13.5988C0.238962 13.6901 0.3457 13.7552 0.464187 13.7859C0.582674 13.8166 0.70759 13.8114 0.82315 13.7711C0.938709 13.7308 1.03973 13.6571 1.11343 13.5594C1.18714 13.4617 1.23023 13.3443 1.23725 13.2222C1.24206 13.1409 1.23077 13.0595 1.20402 12.9826C1.17727 12.9057 1.13559 12.8349 1.08138 12.7741C1.02717 12.7134 0.961493 12.664 0.888124 12.6287C0.814754 12.5934 0.735138 12.573 0.653849 12.5686Z" fill="white"/>
<path d="M7.67981 1.93013C7.78865 1.87424 7.87851 1.7874 7.9381 1.68055C7.99769 1.5737 8.02434 1.4516 8.01469 1.32964C8.00504 1.20767 7.95952 1.09129 7.88387 0.995138C7.80822 0.898985 7.70581 0.827361 7.58954 0.789283C7.47327 0.751205 7.34834 0.748374 7.23046 0.781147C7.11259 0.81392 7.00704 0.880831 6.92711 0.973458C6.84718 1.06609 6.79644 1.18029 6.78128 1.30169C6.76611 1.42309 6.7872 1.54627 6.84189 1.65571C6.87865 1.72897 6.92955 1.79422 6.99165 1.84772C7.05375 1.90121 7.12582 1.94188 7.20371 1.96739C7.2816 1.9929 7.36377 2.00274 7.44549 1.99635C7.5272 1.98995 7.60684 1.96745 7.67981 1.93013Z" fill="white"/>
<path d="M9.62483 5.32161C9.79386 5.23635 9.93381 5.10289 10.027 4.9381C10.1202 4.77331 10.1624 4.58459 10.1484 4.39581C10.1343 4.20702 10.0646 4.02663 9.94803 3.87746C9.83147 3.72829 9.6733 3.61702 9.49352 3.55772C9.31373 3.49843 9.1204 3.49377 8.93797 3.54434C8.75554 3.5949 8.59219 3.69842 8.46858 3.84181C8.34498 3.9852 8.26665 4.16201 8.24352 4.34991C8.22039 4.5378 8.25349 4.72833 8.33863 4.89742C8.39519 5.00976 8.47334 5.10985 8.5686 5.19197C8.66387 5.27409 8.77438 5.33664 8.89383 5.37603C9.01328 5.41543 9.13932 5.4309 9.26475 5.42156C9.39018 5.41222 9.51254 5.37826 9.62483 5.32161Z" fill="white"/>
<path d="M3.07963 7.65417C3.21 7.73991 3.36287 7.78504 3.51891 7.78387C3.67494 7.7827 3.82712 7.73527 3.95618 7.64758C4.08525 7.5599 4.18541 7.4359 4.24399 7.29127C4.30256 7.14665 4.31692 6.9879 4.28525 6.83511C4.25358 6.68232 4.1773 6.54237 4.06606 6.43294C3.95482 6.32352 3.81362 6.24955 3.66034 6.2204C3.50705 6.19124 3.34856 6.20821 3.20492 6.26916C3.06128 6.33011 2.93894 6.43229 2.85339 6.56278C2.73881 6.73756 2.69828 6.95066 2.7407 7.15529C2.78312 7.35992 2.90502 7.53935 3.07963 7.65417Z" fill="white"/>
<path d="M4.24539 12.2198C4.05639 12.2091 3.86847 12.2547 3.70539 12.3508C3.5423 12.447 3.41138 12.5893 3.32915 12.7598C3.24693 12.9303 3.2171 13.1213 3.24344 13.3088C3.26978 13.4963 3.3511 13.6717 3.47712 13.8129C3.60315 13.9542 3.76822 14.0549 3.95148 14.1024C4.13473 14.1498 4.32794 14.1419 4.50668 14.0795C4.68542 14.0172 4.84167 13.9033 4.95568 13.7522C5.06969 13.601 5.13633 13.4195 5.1472 13.2305C5.1615 12.977 5.07455 12.7281 4.90545 12.5385C4.73636 12.349 4.49895 12.2344 4.24539 12.2198Z" fill="white"/>
<path d="M3.18437 18.6561C3.04518 18.7264 2.92997 18.8365 2.8533 18.9723C2.77663 19.1081 2.74195 19.2636 2.75364 19.4191C2.76533 19.5746 2.82287 19.7232 2.91898 19.846C3.01509 19.9688 3.14546 20.0604 3.2936 20.1091C3.44174 20.1579 3.60102 20.1616 3.75128 20.1199C3.90155 20.0781 4.03606 19.9927 4.13781 19.8746C4.23957 19.7564 4.304 19.6107 4.32296 19.4559C4.34192 19.3011 4.31456 19.1441 4.24434 19.0049C4.19768 18.9123 4.13324 18.8299 4.0547 18.7623C3.97617 18.6947 3.88507 18.6432 3.78663 18.6108C3.6882 18.5784 3.58434 18.5657 3.481 18.5735C3.37766 18.5813 3.27686 18.6093 3.18437 18.6561Z" fill="white"/>
<path d="M6.90578 10.2413C7.0922 10.3634 7.31066 10.4276 7.53354 10.4256C7.75642 10.4236 7.97371 10.3556 8.15793 10.2301C8.34215 10.1047 8.48503 9.9274 8.56851 9.72073C8.65198 9.51407 8.67231 9.28729 8.62691 9.06908C8.58151 8.85086 8.47242 8.65101 8.31345 8.49479C8.15447 8.33857 7.95274 8.233 7.73377 8.19142C7.51479 8.14984 7.2884 8.17413 7.08323 8.2612C6.87806 8.34828 6.70331 8.49424 6.58109 8.68063C6.49978 8.80437 6.44367 8.94293 6.41599 9.08839C6.3883 9.23384 6.38957 9.38333 6.41973 9.52829C6.44989 9.67325 6.50834 9.81084 6.59175 9.93318C6.67515 10.0555 6.78187 10.1602 6.90578 10.2413Z" fill="white"/>
<path d="M18.7121 5.2462C18.8708 5.34974 19.0567 5.40389 19.2462 5.40181C19.4357 5.39974 19.6203 5.34153 19.7767 5.23455C19.9331 5.12756 20.0543 4.9766 20.125 4.80075C20.1956 4.6249 20.2125 4.43205 20.1736 4.24659C20.1347 4.06112 20.0416 3.89136 19.9062 3.75877C19.7708 3.62618 19.5991 3.5367 19.4129 3.50166C19.2267 3.46661 19.0342 3.48757 18.8599 3.56188C18.6855 3.63619 18.5372 3.76052 18.4335 3.91914C18.3644 4.02451 18.3169 4.14247 18.2935 4.26625C18.2701 4.39004 18.2714 4.51722 18.2973 4.6405C18.3232 4.76379 18.3732 4.88075 18.4443 4.98469C18.5155 5.08862 18.6065 5.17749 18.7121 5.2462Z" fill="white"/>
<path d="M20.677 1.86519C20.7796 1.93244 20.8998 1.96775 21.0225 1.96665C21.1452 1.96554 21.2648 1.92808 21.3661 1.859C21.4675 1.78991 21.5461 1.69231 21.592 1.57855C21.6379 1.46478 21.649 1.33996 21.6239 1.21988C21.5988 1.0998 21.5387 0.989851 21.4511 0.90395C21.3636 0.81805 21.2525 0.760055 21.1319 0.737305C21.0114 0.714555 20.8868 0.728072 20.7739 0.776145C20.6611 0.824218 20.565 0.904687 20.4979 1.00737C20.408 1.14491 20.3764 1.3125 20.41 1.47334C20.4435 1.63418 20.5396 1.77512 20.677 1.86519Z" fill="white"/>
<path d="M18.8629 11.23C18.6115 11.2156 18.3598 11.2508 18.122 11.3336C17.8843 11.4165 17.6652 11.5453 17.4772 11.7129C17.0976 12.0512 16.868 12.5265 16.8388 13.0341C16.8096 13.5418 16.9833 14.0403 17.3217 14.4198C17.66 14.7994 18.1353 15.0291 18.643 15.0582C18.6796 15.0582 18.7173 15.0582 18.754 15.0582C19.1238 15.0581 19.4857 14.9509 19.7959 14.7497C20.1062 14.5485 20.3517 14.2618 20.5027 13.9242C20.6537 13.5867 20.7038 13.2126 20.647 12.8472C20.5903 12.4817 20.429 12.1405 20.1826 11.8647C20.0158 11.6766 19.8132 11.5236 19.5866 11.4146C19.36 11.3057 19.114 11.2429 18.8629 11.23Z" fill="white"/>
<path d="M10.2543 10.1082C10.4134 10.4261 10.6582 10.6933 10.9609 10.8796C11.2636 11.066 11.6124 11.1641 11.9679 11.163C12.2956 11.163 12.6179 11.0791 12.904 10.9192C13.1901 10.7593 13.4304 10.5287 13.6021 10.2495C13.7737 9.97032 13.8709 9.65179 13.8844 9.32432C13.898 8.99685 13.8274 8.67139 13.6793 8.37898C13.5191 8.06253 13.2739 7.79694 12.9713 7.61195C12.6686 7.42696 12.3205 7.32988 11.9658 7.33158C11.639 7.33213 11.3179 7.41616 11.0327 7.57568C10.7476 7.73521 10.5079 7.96494 10.3365 8.24309C10.165 8.52123 10.0675 8.83857 10.0531 9.16499C10.0387 9.49141 10.108 9.81609 10.2543 10.1082Z" fill="white"/>
<path d="M25.2845 7.65208C25.4237 7.58182 25.539 7.47188 25.6157 7.33613C25.6925 7.20039 25.7273 7.04494 25.7157 6.88943C25.7041 6.73392 25.6467 6.58533 25.5507 6.46244C25.4547 6.33956 25.3245 6.24788 25.1764 6.19901C25.0283 6.15014 24.869 6.14626 24.7188 6.18786C24.5685 6.22947 24.4339 6.31469 24.332 6.43276C24.2302 6.55083 24.1656 6.69645 24.1465 6.85121C24.1273 7.00597 24.1545 7.16293 24.2245 7.30225C24.3188 7.48911 24.4834 7.63091 24.6821 7.69651C24.8809 7.7621 25.0975 7.74612 25.2845 7.65208Z" fill="white"/>
<path d="M20.4235 8.26271C20.2245 8.36298 20.0596 8.52002 19.9498 8.71399C19.8399 8.90796 19.7901 9.13014 19.8065 9.35243C19.823 9.57472 19.905 9.78714 20.0422 9.96284C20.1793 10.1385 20.3655 10.2696 20.5772 10.3395C20.7889 10.4093 21.0165 10.4149 21.2313 10.3554C21.4461 10.2959 21.6385 10.174 21.784 10.0052C21.9296 9.83638 22.0218 9.6282 22.049 9.40697C22.0763 9.18574 22.0373 8.9614 21.937 8.76232C21.8706 8.63005 21.7787 8.51217 21.6666 8.41545C21.5545 8.31873 21.4245 8.24506 21.2839 8.19865C21.1433 8.15225 20.995 8.13402 20.8473 8.14501C20.6997 8.156 20.5557 8.196 20.4235 8.26271Z" fill="white"/>
<path d="M14.1622 1.57611C14.3179 1.58498 14.4728 1.54746 14.6073 1.46828C14.7417 1.38911 14.8496 1.27184 14.9174 1.13131C14.9852 0.990789 15.0098 0.83332 14.988 0.678826C14.9663 0.524332 14.8992 0.379754 14.7953 0.263382C14.6914 0.147009 14.5553 0.0640703 14.4042 0.0250568C14.2532 -0.0139566 14.0939 -0.00729177 13.9467 0.0442081C13.7994 0.095708 13.6707 0.189729 13.5769 0.314378C13.4831 0.439027 13.4283 0.588703 13.4196 0.744473C13.4078 0.95321 13.4795 1.15806 13.6187 1.314C13.758 1.46995 13.9534 1.56422 14.1622 1.57611Z" fill="white"/>
<path d="M14.1538 6.53974C14.3763 6.55221 14.5975 6.49845 14.7894 6.38525C14.9813 6.27205 15.1354 6.10448 15.2322 5.90374C15.3289 5.703 15.3639 5.47808 15.3329 5.25742C15.3018 5.03676 15.206 4.83026 15.0577 4.66402C14.9093 4.49778 14.7149 4.37926 14.4992 4.32344C14.2835 4.26761 14.056 4.277 13.8456 4.3504C13.6352 4.42381 13.4513 4.55793 13.3171 4.73584C13.1829 4.91374 13.1045 5.12743 13.0917 5.34989C13.0749 5.6485 13.1773 5.94158 13.3764 6.1647C13.5756 6.38782 13.8552 6.52272 14.1538 6.53974Z" fill="white"/>
<path d="M8.04745 18.0444C8.2465 17.944 8.41132 17.7869 8.52106 17.5929C8.63081 17.3988 8.68054 17.1766 8.66397 16.9543C8.64741 16.732 8.56529 16.5196 8.428 16.344C8.29071 16.1683 8.10442 16.0374 7.8927 15.9676C7.68097 15.8979 7.45331 15.8925 7.23852 15.9521C7.02373 16.0118 6.83145 16.1338 6.68601 16.3027C6.54056 16.4717 6.44849 16.6799 6.42142 16.9012C6.39436 17.1225 6.43352 17.3468 6.53396 17.5458C6.66859 17.8126 6.90366 18.015 7.18748 18.1085C7.47129 18.202 7.78062 18.1789 8.04745 18.0444Z" fill="white"/>
<path d="M14.8817 8.18416C14.648 8.54087 14.5399 8.96534 14.5745 9.3904C14.6092 9.81546 14.7846 10.2168 15.073 10.531C15.3614 10.8451 15.7464 11.0541 16.1669 11.1249C16.5875 11.1956 17.0196 11.1241 17.395 10.9216C17.7703 10.7191 18.0674 10.3973 18.2392 10.007C18.4111 9.61663 18.4478 9.18015 18.3436 8.76659C18.2395 8.35303 18.0004 7.98602 17.6642 7.72364C17.328 7.46127 16.9139 7.31851 16.4874 7.31796C16.1689 7.31774 15.8554 7.3968 15.575 7.54802C15.2947 7.69924 15.0565 7.91786 14.8817 8.18416Z" fill="white"/>
<path d="M18.2146 16.1999C18.061 15.8954 17.829 15.6374 17.5424 15.4524C17.2558 15.2675 16.9251 15.1624 16.5844 15.148C16.2436 15.1335 15.9052 15.2102 15.604 15.3702C15.3028 15.5302 15.0497 15.7676 14.8709 16.0581C14.6921 16.3485 14.594 16.6814 14.5868 17.0223C14.5796 17.3633 14.6635 17.7 14.8298 17.9978C14.9961 18.2955 15.2389 18.5435 15.533 18.7161C15.8272 18.8887 16.1621 18.9797 16.5031 18.9797C16.8031 18.9776 17.0986 18.9059 17.3662 18.7702C17.8188 18.5411 18.1622 18.142 18.3212 17.6603C18.4802 17.1786 18.4419 16.6534 18.2146 16.1999Z" fill="white"/>
<path d="M21.5642 16.0658C21.3778 15.9435 21.1594 15.8792 20.9365 15.881C20.7136 15.8828 20.4963 15.9507 20.3119 16.076C20.1276 16.2014 19.9846 16.3786 19.901 16.5852C19.8174 16.7918 19.7969 17.0186 19.8421 17.2368C19.8874 17.4551 19.9964 17.655 20.1553 17.8113C20.3142 17.9677 20.5158 18.0734 20.7348 18.1151C20.9538 18.1568 21.1802 18.1326 21.3854 18.0457C21.5906 17.9587 21.7655 17.8128 21.8878 17.6265C22.0513 17.3764 22.109 17.0718 22.0483 16.7793C21.9877 16.4868 21.8136 16.2302 21.5642 16.0658Z" fill="white"/>
<path d="M25.2342 13.1865C25.2449 12.9975 25.1993 12.8096 25.1032 12.6465C25.0071 12.4835 24.8648 12.3525 24.6943 12.2703C24.5238 12.1881 24.3327 12.1583 24.1452 12.1846C23.9578 12.2109 23.7823 12.2923 23.6411 12.4183C23.4998 12.5443 23.3991 12.7094 23.3517 12.8926C23.3042 13.0759 23.3122 13.2691 23.3745 13.4478C23.4368 13.6266 23.5508 13.7828 23.7019 13.8968C23.853 14.0108 24.0345 14.0775 24.2235 14.0884C24.4771 14.1027 24.726 14.0157 24.9155 13.8466C25.105 13.6775 25.2197 13.4401 25.2342 13.1865Z" fill="white"/>
<path d="M27.8863 12.5047C27.7638 12.4976 27.642 12.5271 27.5363 12.5892C27.4306 12.6514 27.3457 12.7435 27.2923 12.8539C27.239 12.9643 27.2196 13.0881 27.2365 13.2096C27.2535 13.331 27.3061 13.4447 27.3877 13.5363C27.4693 13.6278 27.5762 13.6931 27.6949 13.7239C27.8136 13.7547 27.9388 13.7496 28.0546 13.7093C28.1704 13.6689 28.2717 13.5951 28.3456 13.4972C28.4194 13.3993 28.4626 13.2817 28.4697 13.1593C28.4788 12.9952 28.4226 12.8342 28.3132 12.7115C28.2039 12.5888 28.0503 12.5144 27.8863 12.5047Z" fill="white"/>
<path d="M25.3893 18.6529C25.2588 18.5675 25.1059 18.5226 24.95 18.524C24.794 18.5255 24.642 18.5731 24.5131 18.6609C24.3842 18.7487 24.2842 18.8727 24.2258 19.0174C24.1674 19.162 24.1532 19.3207 24.185 19.4733C24.2167 19.626 24.2931 19.7659 24.4043 19.8752C24.5155 19.9845 24.6567 20.0584 24.8099 20.0875C24.9631 20.1166 25.1215 20.0997 25.2651 20.0388C25.4087 19.9779 25.531 19.8758 25.6165 19.7454C25.6734 19.6587 25.7126 19.5617 25.732 19.4599C25.7513 19.3581 25.7504 19.2535 25.7293 19.152C25.7082 19.0506 25.6673 18.9543 25.6089 18.8687C25.5506 18.783 25.4759 18.7097 25.3893 18.6529Z" fill="white"/>
<path d="M7.79293 24.4419C7.69041 24.3746 7.57024 24.3393 7.44762 24.3403C7.32501 24.3413 7.20544 24.3786 7.10405 24.4476C7.00265 24.5166 6.92398 24.614 6.87798 24.7277C6.83198 24.8414 6.82071 24.9661 6.8456 25.0862C6.8705 25.2063 6.93043 25.3163 7.01783 25.4023C7.10523 25.4883 7.21617 25.5464 7.33662 25.5694C7.45707 25.5924 7.58163 25.5791 7.69454 25.5313C7.80746 25.4835 7.90366 25.4033 7.97099 25.3008C8.01571 25.2327 8.04659 25.1565 8.06184 25.0765C8.0771 24.9964 8.07644 24.9142 8.0599 24.8345C8.04337 24.7547 8.01128 24.679 7.96547 24.6116C7.91966 24.5443 7.86103 24.4866 7.79293 24.4419Z" fill="white"/>
<path d="M20.7891 24.377C20.6796 24.4322 20.5889 24.5186 20.5285 24.6254C20.4681 24.7321 20.4407 24.8544 20.4498 24.9767C20.4589 25.099 20.5041 25.2158 20.5796 25.3125C20.6551 25.4091 20.7576 25.4812 20.8741 25.5196C20.9906 25.558 21.1158 25.561 21.234 25.5282C21.3522 25.4953 21.458 25.4282 21.538 25.3353C21.618 25.2424 21.6687 25.1278 21.6836 25.0061C21.6985 24.8843 21.677 24.7609 21.6218 24.6514C21.5852 24.5786 21.5346 24.5138 21.473 24.4606C21.4113 24.4074 21.3397 24.3669 21.2624 24.3414C21.185 24.3159 21.1034 24.3059 21.0222 24.312C20.941 24.3181 20.8617 24.3402 20.7891 24.377Z" fill="white"/>
<path d="M13.5872 18.1198C13.8209 17.7631 13.929 17.3385 13.8943 16.9134C13.8597 16.4883 13.6842 16.0869 13.3957 15.7728C13.1072 15.4586 12.7222 15.2497 12.3016 15.179C11.8809 15.1083 11.4488 15.18 11.0734 15.3826C10.6981 15.5852 10.4011 15.9072 10.2294 16.2976C10.0577 16.688 10.0211 17.1246 10.1254 17.5381C10.2298 17.9517 10.4691 18.3186 10.8054 18.5809C11.1418 18.8431 11.556 18.9857 11.9825 18.986C12.3011 18.9871 12.6148 18.9084 12.8951 18.7571C13.1754 18.6058 13.4133 18.3867 13.5872 18.1198Z" fill="white"/>
<path d="M9.75681 21.0619C9.59839 20.9583 9.41281 20.904 9.22352 20.9058C9.03423 20.9076 8.84972 20.9655 8.69333 21.0722C8.53694 21.1788 8.41568 21.3295 8.34488 21.505C8.27407 21.6806 8.25691 21.8732 8.29555 22.0585C8.3342 22.2438 8.42691 22.4135 8.56198 22.5461C8.69705 22.6788 8.86841 22.7684 9.0544 22.8036C9.24039 22.8389 9.43265 22.8182 9.60689 22.7442C9.78114 22.6703 9.92953 22.5463 10.0333 22.388C10.1723 22.1754 10.2213 21.9164 10.1695 21.6677C10.1176 21.4191 9.96919 21.2012 9.75681 21.0619Z" fill="white"/>
<path d="M14.2261 24.731C14.0703 24.7221 13.9155 24.7596 13.7811 24.8388C13.6467 24.9179 13.5388 25.0351 13.471 25.1756C13.4032 25.3161 13.3786 25.4735 13.4002 25.6279C13.4219 25.7824 13.4889 25.927 13.5927 26.0434C13.6965 26.1598 13.8325 26.2428 13.9834 26.2819C14.1344 26.321 14.2936 26.3145 14.4409 26.2632C14.5882 26.2118 14.7169 26.118 14.8109 25.9935C14.9048 25.8689 14.9597 25.7194 14.9687 25.5637C14.9746 25.4602 14.9601 25.3566 14.926 25.2588C14.8919 25.161 14.8389 25.0708 14.7699 24.9935C14.7009 24.9161 14.6174 24.8532 14.5241 24.8081C14.4308 24.7631 14.3295 24.7369 14.2261 24.731Z" fill="white"/>
<path d="M14.2344 19.7684C14.0118 19.7549 13.7901 19.8077 13.5975 19.9203C13.4048 20.0329 13.25 20.2 13.1525 20.4007C13.0549 20.6013 13.0192 20.8264 13.0497 21.0474C13.0802 21.2684 13.1756 21.4754 13.3238 21.6421C13.472 21.8089 13.6664 21.9278 13.8823 21.984C14.0982 22.0402 14.3259 22.031 14.5366 21.9577C14.7473 21.8843 14.9315 21.7501 15.0658 21.572C15.2002 21.3939 15.2786 21.1799 15.2913 20.9572C15.3084 20.6595 15.2068 20.3671 15.0087 20.1443C14.8106 19.9214 14.5321 19.7862 14.2344 19.7684Z" fill="white"/>
<path d="M18.8441 20.9855C18.6749 21.0713 18.5351 21.2054 18.4422 21.3707C18.3493 21.536 18.3075 21.7252 18.3222 21.9143C18.3369 22.1034 18.4073 22.2838 18.5246 22.4329C18.6419 22.5819 18.8008 22.6928 18.9811 22.7515C19.1614 22.8102 19.3551 22.814 19.5377 22.7626C19.7202 22.7111 19.8834 22.6067 20.0065 22.4625C20.1297 22.3183 20.2073 22.1407 20.2295 21.9524C20.2517 21.7641 20.2175 21.5734 20.1313 21.4044C20.0744 21.2923 19.9959 21.1925 19.9004 21.1108C19.8049 21.029 19.6941 20.9669 19.5746 20.928C19.455 20.8891 19.3289 20.8741 19.2036 20.884C19.0782 20.8939 18.9561 20.9283 18.8441 20.9855Z" fill="white"/>
</svg>
