<svg width="59" height="55" viewBox="0 0 59 55" fill="none" xmlns="http://www.w3.org/2000/svg">
<path fill-rule="evenodd" clip-rule="evenodd" d="M26.2013 44.6597C27.7294 50.4886 33.2135 54.9365 35.982 54.7543C36.0786 54.7477 46.4871 52.7477 52.1843 42.9341C56.619 35.2984 55.1086 27.9261 49.0777 27.7658C46.9086 27.9283 23.288 33.553 26.2013 44.6597ZM31.4396 0.773004C27.512 0.773004 23.7842 1.61605 20.412 3.11992C19.822 3.36722 19.2472 3.64947 18.6908 3.96516C18.3088 4.16934 17.9267 4.37132 17.5579 4.59086L17.6457 4.6194C16.5283 5.39439 15.5667 6.29671 14.7785 7.34174C6.97813 17.6691 33.1213 25.1752 47.0975 25.2016C53.5301 29.8274 55.3347 12.1739 49.0514 7.27368C44.1492 3.0668 37.8994 0.759955 31.4396 0.773004Z" fill="#0E3CA5"/>
<path fill-rule="evenodd" clip-rule="evenodd" d="M21.6149 6.82823C18.0802 12.0204 6.30392 15.6802 4.36755 15.1094L4.35876 15.0874L4.60026 14.6198C6.6235 10.8235 9.49669 7.54604 12.9956 5.04335C13.7201 4.52303 14.4709 4.03784 15.2459 3.58558C16.8903 2.65252 18.5808 2.59544 19.1362 2.57349C24.3789 2.67009 21.6412 6.78652 21.6127 6.82823" fill="#5493F7"/>
<mask id="mask0_1_2970" style="mask-type:alpha" maskUnits="userSpaceOnUse" x="0" y="18" width="19" height="37">
<path d="M0.758667 18.7681H18.7546V54.7578H0.758667V18.7681Z" fill="white"/>
</mask>
<g mask="url(#mask0_1_2970)">
<path fill-rule="evenodd" clip-rule="evenodd" d="M18.6493 45.7368C18.9127 47.4426 18.6427 54.1848 18.287 54.7534C17.9841 54.771 17.3474 54.8105 15.5098 53.7918C11.9443 51.7829 8.83968 49.0486 6.39657 45.7653C4.60934 43.3603 3.20929 40.6906 2.24721 37.853C1.25683 34.9176 0.754004 31.8398 0.758704 28.7419C0.75322 25.3364 1.36157 21.9578 2.55457 18.7681H2.55896C4.66657 21.5321 7.1035 24.0327 9.17379 26.8253C11.1475 29.4818 13.861 33.8134 14.4121 34.7398C17.8414 40.4853 18.388 44.0309 18.6493 45.7368Z" fill="#5493F7"/>
</g>
<path fill-rule="evenodd" clip-rule="evenodd" d="M58.3449 29.0612C58.3449 32.7473 57.6424 36.271 56.3712 39.5027C53.0342 43.1032 30.5266 34.2424 30.3049 34.1458C27.2269 32.7934 17.8568 28.6748 17.0115 22.2071C15.7953 12.9028 34.6145 6.41752 42.8847 6.17163C43.8748 6.18261 46.8936 6.21773 48.6521 7.65355C51.7014 10.3233 54.1441 13.6148 55.8159 17.3069C57.4878 20.999 58.3501 25.0061 58.3449 29.059V29.0612ZM38.6629 52.0759C40.0087 47.3118 51.7762 42.4292 54.3734 42.1657C54.6939 42.1328 54.83 42.3589 54.6895 42.618C51.9804 47.5446 47.9693 51.6017 43.1152 54.2318C40.6607 55.4218 37.9603 54.5546 38.6629 52.0759Z" fill="#5493F7"/>
</svg>
