<svg width="59" height="55" viewBox="0 0 59 55" fill="none" xmlns="http://www.w3.org/2000/svg">
<path d="M55.4761 0.517578L33.0062 17.2761L37.1615 7.38881L55.4761 0.517578Z" fill="#E2761B"/>
<path d="M3.60325 0.517578L25.8925 17.4349L21.9405 7.38881L3.60325 0.517578ZM47.3914 39.3638L41.4069 48.5708L54.2114 52.1085L57.8924 39.5679L47.3914 39.3638ZM1.23206 39.5679L4.89047 52.1085L17.6949 48.5708L11.7105 39.3638L1.23206 39.5679Z" fill="#E4761B"/>
<path d="M16.9723 23.8072L13.4042 29.2271L26.1183 29.794L25.6666 16.0743L16.9723 23.8072ZM42.1069 23.8072L33.2996 15.9155L33.0061 29.794L45.6976 29.2271L42.1069 23.8072ZM17.6949 48.5709L25.3279 44.8291L18.7337 39.6587L17.6949 48.5709ZM33.7513 44.8291L41.4069 48.5709L40.3455 39.6587L33.7513 44.8291Z" fill="#E4761B"/>
<path d="M41.407 48.5709L33.7515 44.8291L34.3612 49.8408L34.2934 51.9498L41.407 48.5709ZM17.6951 48.5709L24.8087 51.9498L24.7635 49.8408L25.3281 44.8291L17.6951 48.5709Z" fill="#D7C1B3"/>
<path d="M24.9216 36.3477L18.5532 34.4655L23.0472 32.4019L24.9216 36.3477ZM34.158 36.3477L36.0323 32.4019L40.5489 34.4655L34.158 36.3477Z" fill="#233447"/>
<path d="M17.695 48.5708L18.779 39.3638L11.7106 39.5679L17.695 48.5708ZM40.323 39.3638L41.407 48.5708L47.3914 39.5679L40.323 39.3638ZM45.6977 29.2271L33.0062 29.794L34.1805 36.3477L36.0549 32.4019L40.5714 34.4655L45.6977 29.2271ZM18.5532 34.4655L23.0697 32.4019L24.9215 36.3477L26.1184 29.794L13.4043 29.2271L18.5532 34.4655Z" fill="#CD6116"/>
<path d="M13.4042 29.2271L18.7337 39.6586L18.5531 34.4655L13.4042 29.2271ZM40.5713 34.4655L40.3455 39.6586L45.6976 29.2271L40.5713 34.4655ZM26.1183 29.794L24.9214 36.3477L26.4119 44.0807L26.7506 33.8986L26.1183 29.794ZM33.0061 29.794L32.3963 33.8759L32.6673 44.0807L34.1804 36.3477L33.0061 29.794Z" fill="#E4751F"/>
<path d="M34.1805 36.3478L32.6675 44.0808L33.7515 44.8291L40.3457 39.6587L40.5715 34.4656L34.1805 36.3478ZM18.5532 34.4656L18.7339 39.6587L25.3281 44.8291L26.412 44.0808L24.9216 36.3478L18.5532 34.4656Z" fill="#F6851B"/>
<path d="M34.2934 51.9497L34.3612 49.8407L33.7966 49.3418H25.2829L24.7635 49.8407L24.8087 51.9497L17.6951 48.5708L20.1792 50.6118L25.2151 54.1267H33.8644L38.9229 50.6118L41.407 48.5708L34.2934 51.9497Z" fill="#C0AD9E"/>
<path d="M33.7514 44.8292L32.6674 44.0808H26.412L25.328 44.8292L24.7634 49.8408L25.2828 49.3419H33.7966L34.3611 49.8408L33.7514 44.8292Z" fill="#161616"/>
<path d="M56.4246 18.3646L58.3441 9.11228L55.4761 0.517578L33.7514 16.7092L42.1071 23.8072L53.9179 27.2768L56.5375 24.2154L55.4084 23.399L57.215 21.7435L55.8149 20.655L57.6215 19.2717L56.4246 18.3646ZM0.757935 9.11228L2.67747 18.3646L1.458 19.2717L3.26463 20.655L1.88708 21.7435L3.6937 23.399L2.56456 24.2154L5.16159 27.2768L16.9724 23.8072L25.3281 16.7092L3.60337 0.517578L0.757935 9.11228Z" fill="#763D16"/>
<path d="M53.9178 27.2769L42.107 23.8073L45.6976 29.2272L40.3455 39.6587L47.3914 39.568H57.8924L53.9178 27.2769ZM16.9723 23.8073L5.16147 27.2769L1.23206 39.568H11.7105L18.7337 39.6587L13.4042 29.2272L16.9723 23.8073ZM33.0061 29.7941L33.7513 16.7093L37.1839 7.38892H21.9405L25.3279 16.7093L26.1183 29.7941L26.3893 33.9214L26.4119 44.0808H32.6674L32.7125 33.9214L33.0061 29.7941Z" fill="#F6851B"/>
</svg>
