<svg width="26" height="30" viewBox="0 0 26 30" fill="none" xmlns="http://www.w3.org/2000/svg">
<path d="M15.7788 24.9138V28.2758L12.8477 30L10.0029 28.2758V24.9138L12.8477 26.6379L15.7788 24.9138ZM0.0891113 13.2759L2.93394 15V20.7759L7.84773 23.7069V27.069L0.0891113 22.5V13.2759ZM25.6063 13.2759V22.5L17.7615 27.069V23.7069L22.6753 20.7759V15L25.6063 13.2759ZM17.7615 8.70689L20.6926 10.431V13.7931L15.7788 16.7241V22.5862L12.9339 24.3103L10.0891 22.5862V16.7241L5.0029 13.7931V10.431L7.93394 8.70689L12.8477 11.6379L17.7615 8.70689ZM5.0029 16.2069L7.84773 17.931V21.2931L5.0029 19.569V16.2069ZM20.6926 16.2069V19.569L17.8477 21.2931V17.931L20.6926 16.2069ZM2.93394 5.77586L5.86497 7.5L2.93394 9.22413V12.5862L0.0891113 10.8621V7.5L2.93394 5.77586ZM22.7615 5.77586L25.6926 7.5V10.8621L22.7615 12.5862V9.22413L19.9167 7.5L22.7615 5.77586ZM12.8477 5.77586L15.7788 7.5L12.8477 9.22413L10.0029 7.5L12.8477 5.77586ZM12.8477 0L20.6926 4.56896L17.8477 6.2931L12.9339 3.36207L7.93394 6.2931L5.08911 4.56896L12.8477 0Z" fill="white"/>
</svg>
