<svg width="58" height="58" viewBox="0 0 58 58" fill="none" xmlns="http://www.w3.org/2000/svg">
<path fill-rule="evenodd" clip-rule="evenodd" d="M17.7802 24.198L28.9638 13.0144L40.1569 24.2076L46.6639 17.7006L28.9638 0.000488281L11.2732 17.691L17.7802 24.198ZM0.168091 28.7956L6.67336 22.2903L13.1786 28.7956L6.67336 35.3009L0.168091 28.7956ZM28.9637 44.5814L17.7802 33.3978L11.2636 39.8952L11.2732 39.9048L28.9637 57.5953L46.6638 39.8952L40.1569 33.3882L28.9637 44.5814ZM44.7436 28.8002L51.2489 22.2949L57.7541 28.8002L51.2489 35.3054L44.7436 28.8002ZM28.9638 22.1951L35.5666 28.7979L28.9638 35.4103L22.361 28.8075V28.7883L23.5206 27.6288L24.086 27.073L28.9638 22.1951Z" fill="#F3BA2F"/>
</svg>
