<svg width="36" height="59" viewBox="0 0 36 59" fill="none" xmlns="http://www.w3.org/2000/svg">
<path d="M17.9124 0.758545V21.9558C17.9124 22.0458 17.8225 22.1358 17.7325 22.1358C17.1026 22.4109 16.5627 22.6834 15.9328 22.9559C15.123 23.3184 14.2232 23.6835 13.4133 24.1386L10.4439 25.5012L8.01437 26.5938L5.04495 27.959C4.23511 28.324 3.42527 28.6865 2.52544 29.1416C1.89556 29.4141 1.1757 29.7792 0.545826 30.0517C0.455844 30.0517 0.455844 30.1417 0.365861 30.0517H0.275879C0.545826 29.5966 0.815774 29.2316 1.08572 28.7791C2.52544 26.3213 4.05514 23.866 5.49486 21.4082C7.02456 18.773 8.64425 16.1327 10.174 13.4949C11.6137 11.0397 13.0534 8.58445 14.4931 6.2192C15.5729 4.39641 16.6527 2.67132 17.6425 0.848527C17.8225 0.848527 17.8225 0.758545 17.9124 0.758545C17.9124 0.758545 17.8225 0.758545 17.9124 0.758545Z" fill="#8C8C8C"/>
<path d="M35.369 30.0518C34.0192 30.9619 32.5795 31.7794 31.2298 32.597C26.8206 35.2373 22.5015 37.7851 18.0923 40.4229C18.0024 40.4229 18.0024 40.5129 17.9124 40.5129C17.8224 40.5129 17.8224 40.4229 17.8224 40.4229V22.1359C17.8224 22.0459 17.9124 22.0459 18.0024 22.0459C18.3623 22.2259 18.7222 22.411 19.1721 22.5909C20.2519 23.1385 21.4217 23.5936 22.5015 24.1386C23.4913 24.5937 24.3911 25.0487 25.3809 25.4112C26.3707 25.8663 27.2705 26.3214 28.2604 26.7764C29.0702 27.1415 29.97 27.504 30.7799 27.959C31.5897 28.3241 32.4895 28.6866 33.2994 29.1417C33.9293 29.4142 34.5591 29.7792 35.279 30.0518C35.279 29.9618 35.279 30.0518 35.369 30.0518Z" fill="#141414"/>
<path d="M17.9122 58.3449C17.8222 58.3449 17.9122 58.3449 17.9122 58.3449C17.8222 58.3449 17.8222 58.3449 17.7322 58.2524C15.9326 55.7072 14.2229 53.2493 12.4233 50.7016L7.0243 43.0608C5.31464 40.6055 3.51499 38.1503 1.80532 35.5999L0.455583 33.6897C0.455583 33.5997 0.365601 33.5997 0.365601 33.5098C0.455583 33.5098 0.455583 33.5997 0.545566 33.5997C2.97509 35.0549 5.4946 36.51 7.92413 37.9652C10.7136 39.6954 13.593 41.3331 16.3825 43.0608C16.8324 43.3333 17.3723 43.6058 17.8222 43.8783C17.9122 43.8783 17.9122 43.9709 17.9122 44.0609V58.3449Z" fill="#8C8C8C"/>
<path d="M0.275879 29.0997C0.275879 29.0097 0.275879 29.0097 0.275879 29.0997C1.1757 28.6446 2.07553 28.2821 2.97535 27.827L6.48467 26.1894C7.38449 25.7343 8.28432 25.3718 9.18414 24.9168C10.4439 24.2792 11.7936 23.7341 13.0534 23.0965C13.9532 22.7315 14.853 22.2764 15.7529 21.9139C16.3827 21.6414 17.0126 21.3689 17.6425 21.0038C17.7325 21.0038 17.7325 20.9138 17.8225 20.9138V39.4708C17.7325 39.5633 17.7325 39.4708 17.6425 39.4708C17.3725 39.2908 17.1026 39.1983 16.9226 39.0157L0.455844 29.1922C0.365861 29.0997 0.275879 29.0997 0.275879 29.0997ZM35.0991 32.4676C35.0991 32.5575 35.0991 32.5575 35.0091 32.6475C29.7901 40.1084 24.5711 47.4766 19.3522 54.9375C18.8123 55.755 18.2724 56.4826 17.7325 57.3027V42.8361C18.9023 42.1085 20.072 41.381 21.2418 40.746L35.0091 32.5575C35.0091 32.4676 35.0991 32.4676 35.0991 32.4676Z" fill="#3C3C3B"/>
<path d="M17.9125 22.0459V0.85376L35.1891 29.7818C35.2791 29.8718 35.3691 29.9618 35.3691 30.0544C35.0091 29.8744 34.6492 29.6893 34.1993 29.5093C33.7494 29.3268 33.2995 29.0543 32.8496 28.8717C32.5796 28.7817 32.3097 28.5992 31.9497 28.5067C31.4998 28.3267 30.9599 28.0516 30.51 27.8716C30.2401 27.7791 29.9701 27.5991 29.7002 27.5066L27.8105 26.689C27.4506 26.5065 27.1807 26.4165 26.8207 26.234C26.3708 26.0514 25.9209 25.7789 25.471 25.5964C25.2011 25.5064 24.9311 25.3238 24.6612 25.2339L22.7715 24.4137C22.4116 24.2338 22.1417 24.1412 21.7817 23.9587C21.3318 23.7787 20.8819 23.5036 20.432 23.3211C20.162 23.1411 19.8021 23.0486 19.5322 22.8686L17.9125 22.0485V22.0459Z" fill="#343434"/>
</svg>
