<svg width="57" height="57" viewBox="0 0 57 57" fill="none" xmlns="http://www.w3.org/2000/svg">
<path d="M25.4322 25.4321C27.4482 25.9258 29.5534 25.9258 31.5694 25.4321C32.1327 23.1412 33.3124 21.0483 34.9806 19.3801C36.6488 17.7119 38.7417 16.5322 41.0326 15.9689C41.497 14.0698 41.5236 12.0901 41.1106 10.1792C40.6977 8.26831 39.8558 6.47627 38.6487 4.93846C37.4416 3.40064 35.9008 2.15725 34.1426 1.30224C32.3845 0.44722 30.4551 0.00292969 28.5001 0.00292969C26.5451 0.00292969 24.6157 0.44722 22.8575 1.30224C21.0994 2.15725 19.5586 3.40064 18.3515 4.93846C17.1444 6.47627 16.3025 8.26831 15.8895 10.1792C15.4766 12.0901 15.5032 14.0698 15.9676 15.9689C18.2589 16.5316 20.3524 17.711 22.0209 19.3793C23.6894 21.0475 24.8692 23.1409 25.4322 25.4321Z" fill="#7ABDF7"/>
<path d="M31.5694 31.5668C29.5535 31.0731 27.4482 31.0731 25.4323 31.5668C24.8689 33.8577 23.6892 35.9506 22.0211 37.6188C20.3529 39.287 18.2599 40.4667 15.969 41.03C15.5047 42.9291 15.478 44.9088 15.891 46.8197C16.304 48.7306 17.1458 50.5226 18.353 52.0604C19.5601 53.5982 21.1009 54.8416 22.859 55.6966C24.6171 56.5516 26.5466 56.9959 28.5016 56.9959C30.4566 56.9959 32.386 56.5516 34.1441 55.6966C35.9022 54.8416 37.443 53.5982 38.6502 52.0604C39.8573 50.5226 40.6991 48.7306 41.1121 46.8197C41.5251 44.9088 41.4984 42.9291 41.0341 41.03C38.7427 40.4673 36.6492 39.2879 34.9807 37.6196C33.3122 35.9514 32.1325 33.858 31.5694 31.5668Z" fill="#0D74F5"/>
<path d="M44.1014 15.5978C43.0678 15.5977 42.038 15.7219 41.0342 15.9677C40.4715 18.2585 39.2921 20.3514 37.6241 22.0194C35.9561 23.6874 33.8632 24.8668 31.5724 25.4295C31.0787 27.4455 31.0787 29.5507 31.5724 31.5667C33.8632 32.1298 35.9561 33.3095 37.6241 34.9777C39.2921 36.6459 40.4714 38.739 41.0342 41.0299C42.8063 41.4628 44.65 41.5149 46.4437 41.1829C48.2373 40.8509 49.9402 40.1423 51.44 39.1039C52.9397 38.0654 54.2022 36.7208 55.1441 35.1586C56.0861 33.5965 56.686 31.8523 56.9044 30.0413C57.1228 28.2302 56.9547 26.3935 56.4111 24.6522C55.8675 22.9109 54.9609 21.3047 53.751 19.9395C52.5411 18.5743 51.0555 17.4812 49.3921 16.7323C47.7288 15.9834 45.9255 15.5958 44.1014 15.595V15.5978Z" fill="#4494F7"/>
<path d="M25.4321 31.566C25.9258 29.5501 25.9258 27.4448 25.4321 25.4289C23.1412 24.8661 21.0481 23.6867 19.3799 22.0188C17.7117 20.3508 16.532 18.2579 15.9689 15.9671C14.0698 15.5027 12.0901 15.4761 10.1792 15.8891C8.26831 16.302 6.47627 17.1439 4.93846 18.351C3.40064 19.5581 2.15725 21.0989 1.30224 22.8571C0.44722 24.6152 0.00292969 26.5446 0.00292969 28.4996C0.00292969 30.4546 0.44722 32.384 1.30224 34.1421C2.15725 35.9003 3.40064 37.4411 4.93846 38.6482C6.47627 39.8553 8.26831 40.6972 10.1792 41.1101C12.0901 41.5231 14.0698 41.4965 15.9689 41.0321C16.5315 38.7406 17.7109 36.6468 19.3791 34.9781C21.0474 33.3094 23.1407 32.1293 25.4321 31.566Z" fill="#005CF4"/>
<path d="M31.5693 25.4325C33.8602 24.8691 35.9532 23.6894 37.6214 22.0213C39.2895 20.3531 40.4692 18.2601 41.0326 15.9692C38.7417 16.5326 36.6487 17.7123 34.9805 19.3804C33.3124 21.0486 32.1327 23.1416 31.5693 25.4325Z" fill="#186EF9"/>
<path d="M31.5693 31.5664C32.1322 33.8575 33.3118 35.9507 34.98 37.619C36.6483 39.2872 38.7415 40.4668 41.0326 41.0297C40.4692 38.7388 39.2895 36.6458 37.6214 34.9776C35.9532 33.3095 33.8602 32.1298 31.5693 31.5664Z" fill="#0246F2"/>
<path d="M25.432 25.4325C24.8687 23.1416 23.6889 21.0486 22.0208 19.3804C20.3526 17.7123 18.2596 16.5326 15.9688 15.9692C16.5321 18.2601 17.7118 20.3531 19.38 22.0213C21.0481 23.6894 23.1411 24.8691 25.432 25.4325Z" fill="#0046F8"/>
<path d="M25.432 31.5664C23.1411 32.1298 21.0481 33.3095 19.38 34.9776C17.7118 36.6458 16.5321 38.7388 15.9688 41.0297C18.2596 40.4663 20.3526 39.2866 22.0208 37.6185C23.6889 35.9503 24.8687 33.8573 25.432 31.5664Z" fill="#0729F1"/>
<path d="M25.4322 25.4321C27.4482 25.9258 29.5534 25.9258 31.5694 25.4321C32.1327 23.1412 33.3124 21.0483 34.9806 19.3801C36.6488 17.7119 38.7417 16.5322 41.0326 15.9689C41.497 14.0698 41.5236 12.0901 41.1106 10.1792C40.6977 8.26831 39.8558 6.47627 38.6487 4.93846C37.4416 3.40064 35.9008 2.15725 34.1426 1.30224C32.3845 0.44722 30.4551 0.00292969 28.5001 0.00292969C26.5451 0.00292969 24.6157 0.44722 22.8575 1.30224C21.0994 2.15725 19.5586 3.40064 18.3515 4.93846C17.1444 6.47627 16.3025 8.26831 15.8895 10.1792C15.4766 12.0901 15.5032 14.0698 15.9676 15.9689C18.2589 16.5316 20.3524 17.711 22.0209 19.3793C23.6894 21.0475 24.8692 23.1409 25.4322 25.4321Z" fill="#7ABDF7"/>
<path d="M31.5694 31.5668C29.5535 31.0731 27.4482 31.0731 25.4323 31.5668C24.8689 33.8577 23.6892 35.9506 22.0211 37.6188C20.3529 39.287 18.2599 40.4667 15.969 41.03C15.5047 42.9291 15.478 44.9088 15.891 46.8197C16.304 48.7306 17.1458 50.5226 18.353 52.0604C19.5601 53.5982 21.1009 54.8416 22.859 55.6966C24.6171 56.5516 26.5466 56.9959 28.5016 56.9959C30.4566 56.9959 32.386 56.5516 34.1441 55.6966C35.9022 54.8416 37.443 53.5982 38.6502 52.0604C39.8573 50.5226 40.6991 48.7306 41.1121 46.8197C41.5251 44.9088 41.4984 42.9291 41.0341 41.03C38.7427 40.4673 36.6492 39.2879 34.9807 37.6196C33.3122 35.9514 32.1325 33.858 31.5694 31.5668Z" fill="#0D74F5"/>
<path d="M44.1014 15.5978C43.0678 15.5977 42.038 15.7219 41.0342 15.9677C40.4715 18.2585 39.2921 20.3514 37.6241 22.0194C35.9561 23.6874 33.8632 24.8668 31.5724 25.4295C31.0787 27.4455 31.0787 29.5507 31.5724 31.5667C33.8632 32.1298 35.9561 33.3095 37.6241 34.9777C39.2921 36.6459 40.4714 38.739 41.0342 41.0299C42.8063 41.4628 44.65 41.5149 46.4437 41.1829C48.2373 40.8509 49.9402 40.1423 51.44 39.1039C52.9397 38.0654 54.2022 36.7208 55.1441 35.1586C56.0861 33.5965 56.686 31.8523 56.9044 30.0413C57.1228 28.2302 56.9547 26.3935 56.4111 24.6522C55.8675 22.9109 54.9609 21.3047 53.751 19.9395C52.5411 18.5743 51.0555 17.4812 49.3921 16.7323C47.7288 15.9834 45.9255 15.5958 44.1014 15.595V15.5978Z" fill="#4494F7"/>
<path d="M25.4321 31.566C25.9258 29.5501 25.9258 27.4448 25.4321 25.4289C23.1412 24.8661 21.0481 23.6867 19.3799 22.0188C17.7117 20.3508 16.532 18.2579 15.9689 15.9671C14.0698 15.5027 12.0901 15.4761 10.1792 15.8891C8.26831 16.302 6.47627 17.1439 4.93846 18.351C3.40064 19.5581 2.15725 21.0989 1.30224 22.8571C0.44722 24.6152 0.00292969 26.5446 0.00292969 28.4996C0.00292969 30.4546 0.44722 32.384 1.30224 34.1421C2.15725 35.9003 3.40064 37.4411 4.93846 38.6482C6.47627 39.8553 8.26831 40.6972 10.1792 41.1101C12.0901 41.5231 14.0698 41.4965 15.9689 41.0321C16.5315 38.7406 17.7109 36.6468 19.3791 34.9781C21.0474 33.3094 23.1407 32.1293 25.4321 31.566Z" fill="#005CF4"/>
<path d="M31.5693 25.4325C33.8602 24.8691 35.9532 23.6894 37.6214 22.0213C39.2895 20.3531 40.4692 18.2601 41.0326 15.9692C38.7417 16.5326 36.6487 17.7123 34.9805 19.3804C33.3124 21.0486 32.1327 23.1416 31.5693 25.4325Z" fill="#186EF9"/>
<path d="M31.5693 31.5664C32.1322 33.8575 33.3118 35.9507 34.98 37.619C36.6483 39.2872 38.7415 40.4668 41.0326 41.0297C40.4692 38.7388 39.2895 36.6458 37.6214 34.9776C35.9532 33.3095 33.8602 32.1298 31.5693 31.5664Z" fill="#0246F2"/>
<path d="M25.432 25.4325C24.8687 23.1416 23.6889 21.0486 22.0208 19.3804C20.3526 17.7123 18.2596 16.5326 15.9688 15.9692C16.5321 18.2601 17.7118 20.3531 19.38 22.0213C21.0481 23.6894 23.1411 24.8691 25.432 25.4325Z" fill="#0046F8"/>
<path d="M25.432 31.5664C23.1411 32.1298 21.0481 33.3095 19.38 34.9776C17.7118 36.6458 16.5321 38.7388 15.9688 41.0297C18.2596 40.4663 20.3526 39.2866 22.0208 37.6185C23.6889 35.9503 24.8687 33.8573 25.432 31.5664Z" fill="#0729F1"/>
</svg>
