<svg width="32" height="32" viewBox="0 0 32 32" fill="none" xmlns="http://www.w3.org/2000/svg">
<g clip-path="url(#clip0_1_2933)">
<path d="M30.7644 8.27431C30.4062 6.94382 29.3572 5.89479 28.0267 5.53658C25.596 4.87134 15.8733 4.87134 15.8733 4.87134C15.8733 4.87134 6.15048 4.87134 3.71979 5.51099C2.41489 5.8692 1.34027 6.94382 0.982063 8.27431C0.342407 10.705 0.342407 15.7455 0.342407 15.7455C0.342407 15.7455 0.342407 20.8116 0.982063 23.2167C1.34027 24.5472 2.38931 25.5962 3.71979 25.9544C6.17607 26.6196 15.8733 26.6196 15.8733 26.6196C15.8733 26.6196 25.596 26.6196 28.0267 25.98C29.3572 25.6218 30.4062 24.5727 30.7644 23.2423C31.4041 20.8116 31.4041 15.7711 31.4041 15.7711C31.4041 15.7711 31.4297 10.705 30.7644 8.27431Z" fill="white"/>
<path d="M12.7773 20.4023L20.8626 15.7456L12.7773 11.0889V20.4023Z" fill="#00031A"/>
</g>
<defs>
<clipPath id="clip0_1_2933">
<rect width="31.0618" height="31.0618" fill="white" transform="translate(0.342407 0.212158)"/>
</clipPath>
</defs>
</svg>
