<svg width="32" height="32" viewBox="0 0 32 32" fill="none" xmlns="http://www.w3.org/2000/svg">
<g clip-path="url(#clip0_1_2930)">
<path d="M22.3025 11.4246C24.3 12.8575 26.747 13.7006 29.3898 13.7006V8.59682C28.8897 8.59692 28.3908 8.54458 27.9015 8.44054V12.458C25.2588 12.458 22.8121 11.6148 20.8141 10.182V20.5974C20.8141 25.8077 16.6054 30.0312 11.4139 30.0312C9.47682 30.0312 7.67639 29.4435 6.18079 28.4355C7.88778 30.1871 10.2683 31.2737 12.9019 31.2737C18.0937 31.2737 22.3027 27.0502 22.3027 21.8397V11.4246H22.3025ZM24.1386 6.27544C23.1178 5.15622 22.4475 3.70984 22.3025 2.1108V1.45435H20.892C21.2471 3.48672 22.458 5.22306 24.1386 6.27544ZM9.46439 24.4373C8.89405 23.6868 8.58584 22.7688 8.58722 21.8248C8.58722 19.4418 10.5123 17.5096 12.8873 17.5096C13.3299 17.5095 13.7699 17.5775 14.1917 17.7119V12.494C13.6988 12.4262 13.2012 12.3974 12.7039 12.408V16.4693C12.2818 16.335 11.8416 16.2668 11.3989 16.2672C9.0239 16.2672 7.09894 18.1991 7.09894 20.5825C7.09894 22.2676 8.06115 23.7266 9.46439 24.4373Z" fill="white"/>
<path d="M20.8141 10.1819C22.8121 11.6147 25.2588 12.4579 27.9014 12.4579V8.44043C26.4263 8.1251 25.1204 7.35149 24.1386 6.27544C22.4579 5.22296 21.2471 3.48662 20.892 1.45435H17.1871V21.8395C17.1788 24.216 15.257 26.1403 12.8871 26.1403C11.4905 26.1403 10.2498 25.4722 9.46406 24.4373C8.06093 23.7266 7.09871 22.2675 7.09871 20.5826C7.09871 18.1995 9.02367 16.2673 11.3987 16.2673C11.8537 16.2673 12.2923 16.3384 12.7037 16.4694V12.4081C7.60344 12.5138 3.50159 16.696 3.50159 21.8396C3.50159 24.4072 4.52304 26.7349 6.18088 28.4356C7.67649 29.4435 9.47691 30.0313 11.414 30.0313C16.6055 30.0313 20.8142 25.8076 20.8142 20.5974V10.1819H20.8141Z" fill="white"/>
<path d="M27.9014 8.44045V7.35417C26.5712 7.3562 25.2672 6.98234 24.1386 6.27536C25.1376 7.37304 26.4532 8.12992 27.9014 8.44045ZM20.892 1.45437C20.8582 1.26014 20.8322 1.06463 20.8141 0.868372V0.211914H15.6986V20.5973C15.6905 22.9735 13.7688 24.8977 11.3987 24.8977C10.7028 24.8977 10.0459 24.732 9.46406 24.4374C10.2498 25.4722 11.4905 26.1402 12.8871 26.1402C15.2568 26.1402 17.1789 24.2161 17.1871 21.8396V1.45437H20.892ZM12.7039 12.4081V11.2517C12.2765 11.193 11.8455 11.1636 11.4141 11.1638C6.22207 11.1637 2.01331 15.3874 2.01331 20.5973C2.01331 23.8636 3.66743 26.7422 6.18099 28.4355C4.52315 26.7348 3.50169 24.407 3.50169 21.8395C3.50169 16.6961 7.60344 12.5138 12.7039 12.4081Z" fill="white"/>
</g>
<defs>
<clipPath id="clip0_1_2930">
<rect width="31.0618" height="31.0618" fill="white" transform="translate(0.052124 0.211914)"/>
</clipPath>
</defs>
</svg>
