<svg width="32" height="32" viewBox="0 0 32 32" fill="none" xmlns="http://www.w3.org/2000/svg">
<g clip-path="url(#clip0_1_2927)">
<path d="M16.4469 0.212158C7.86049 0.212158 0.922363 7.16305 0.922363 15.7367C0.922363 22.317 5.01113 27.9391 10.7865 30.2007C10.646 28.974 10.531 27.083 10.8376 25.7414C11.1187 24.5275 12.652 18.0239 12.652 18.0239C12.652 18.0239 12.192 17.0911 12.192 15.7239C12.192 13.5645 13.4442 11.9546 15.003 11.9546C16.3319 11.9546 16.9708 12.9512 16.9708 14.1395C16.9708 15.4684 16.1274 17.4616 15.6802 19.3143C15.3097 20.8604 16.4597 22.1254 17.9802 22.1254C20.7401 22.1254 22.8611 19.2121 22.8611 15.0212C22.8611 11.3029 20.1907 8.70912 16.3702 8.70912C11.9493 8.70912 9.35543 12.0184 9.35543 15.4428C9.35543 16.7717 9.86652 18.2027 10.5054 18.9821C10.6332 19.1355 10.646 19.276 10.6076 19.4293C10.4926 19.9149 10.2243 20.9754 10.1732 21.1926C10.1093 21.4737 9.94318 21.5376 9.64931 21.3971C7.7327 20.4771 6.53163 17.6405 6.53163 15.3661C6.53163 10.4724 10.0837 5.97475 16.7919 5.97475C22.1712 5.97475 26.3622 9.80797 26.3622 14.9445C26.3622 20.2982 22.9889 24.6042 18.3124 24.6042C16.7408 24.6042 15.2586 23.7864 14.7603 22.8154C14.7603 22.8154 13.9809 25.7797 13.7892 26.508C13.4442 27.8624 12.4987 29.549 11.8598 30.584C13.3164 31.0312 14.8497 31.274 16.4597 31.274C25.0333 31.274 31.9842 24.3231 31.9842 15.7495C31.9714 7.16305 25.0205 0.212158 16.4469 0.212158Z" fill="white"/>
</g>
<defs>
<clipPath id="clip0_1_2927">
<rect width="31.0618" height="31.0618" fill="white" transform="translate(0.922363 0.212158)"/>
</clipPath>
</defs>
</svg>
