<svg width="32" height="32" viewBox="0 0 32 32" fill="none" xmlns="http://www.w3.org/2000/svg">
<g clip-path="url(#clip0_1_2924)">
<path d="M26.8297 6.92355C24.8679 6.02339 22.7641 5.36019 20.5646 4.98035C20.5245 4.97302 20.4845 4.99134 20.4638 5.02798C20.1933 5.5092 19.8936 6.13698 19.6837 6.63041C17.3179 6.27622 14.9643 6.27622 12.647 6.63041C12.4371 6.12601 12.1265 5.5092 11.8547 5.02798C11.8341 4.99256 11.7941 4.97424 11.754 4.98035C9.55562 5.35898 7.45187 6.02218 5.48885 6.92355C5.47186 6.93088 5.45729 6.94311 5.44762 6.95897C1.45727 12.9205 0.364141 18.7355 0.900392 24.4783C0.902818 24.5064 0.91859 24.5333 0.940428 24.5504C3.57315 26.4838 6.12339 27.6576 8.62628 28.4356C8.66634 28.4478 8.70878 28.4331 8.73427 28.4001C9.32633 27.5916 9.85409 26.7391 10.3066 25.8426C10.3333 25.7901 10.3078 25.7278 10.2532 25.707C9.41611 25.3895 8.619 25.0023 7.85223 24.5626C7.79158 24.5272 7.78672 24.4405 7.84252 24.3989C8.00387 24.278 8.16527 24.1522 8.31935 24.0252C8.34722 24.002 8.38607 23.9971 8.41884 24.0117C13.4562 26.3116 18.9097 26.3116 23.8876 24.0117C23.9203 23.9959 23.9592 24.0008 23.9883 24.024C24.1424 24.151 24.3038 24.278 24.4663 24.3989C24.5221 24.4405 24.5185 24.5272 24.4578 24.5626C23.6911 25.0108 22.8939 25.3895 22.0556 25.7058C22.001 25.7266 21.9767 25.7901 22.0035 25.8426C22.4657 26.7378 22.9934 27.5904 23.5746 28.3989C23.5988 28.4331 23.6425 28.4478 23.6826 28.4356C26.1976 27.6576 28.7478 26.4838 31.3805 24.5504C31.4036 24.5333 31.4182 24.5076 31.4206 24.4796C32.0624 17.8402 30.3456 12.0729 26.8697 6.96019C26.8612 6.94311 26.8467 6.93088 26.8297 6.92355ZM11.0588 20.9815C9.54226 20.9815 8.29264 19.5892 8.29264 17.8793C8.29264 16.1693 9.51803 14.777 11.0588 14.777C12.6118 14.777 13.8493 16.1815 13.825 17.8793C13.825 19.5892 12.5996 20.9815 11.0588 20.9815ZM21.2864 20.9815C19.7699 20.9815 18.5202 19.5892 18.5202 17.8793C18.5202 16.1693 19.7456 14.777 21.2864 14.777C22.8394 14.777 24.0768 16.1815 24.0526 17.8793C24.0526 19.5892 22.8394 20.9815 21.2864 20.9815Z" fill="white"/>
</g>
<defs>
<clipPath id="clip0_1_2924">
<rect width="31.0618" height="31.0618" fill="white" transform="translate(0.632324 0.212158)"/>
</clipPath>
</defs>
</svg>
